<svg width="18" height="18" viewBox="0 0 18 18" fill="none" xmlns="http://www.w3.org/2000/svg">
<path d="M6.08686 8.99996C6.08686 7.39154 7.39118 6.08731 9.00057 6.08731C10.61 6.08731 11.915 7.39154 11.915 8.99996C11.915 10.6084 10.61 11.9126 9.00057 11.9126C7.39118 11.9126 6.08686 10.6084 6.08686 8.99996ZM4.51139 8.99996C4.51139 11.4779 6.52119 13.4864 9.00057 13.4864C11.4799 13.4864 13.4897 11.4779 13.4897 8.99996C13.4897 6.52207 11.4799 4.51348 9.00057 4.51348C6.52119 4.51348 4.51139 6.52207 4.51139 8.99996ZM12.6184 4.33559C12.6183 4.54296 12.6797 4.74569 12.7949 4.91816C12.9101 5.09063 13.0739 5.22508 13.2656 5.30451C13.4573 5.38394 13.6682 5.40479 13.8717 5.36442C14.0752 5.32404 14.2622 5.22426 14.409 5.07769C14.5558 4.93111 14.6558 4.74433 14.6963 4.54097C14.7369 4.3376 14.7162 4.12678 14.6369 3.93516C14.5575 3.74355 14.4231 3.57975 14.2507 3.46447C14.0782 3.34919 13.8754 3.28762 13.6679 3.28754H13.6675C13.3893 3.28767 13.1226 3.39811 12.9259 3.59462C12.7292 3.79113 12.6186 4.05763 12.6184 4.33559ZM5.46859 16.1119C4.61623 16.0731 4.15295 15.9312 3.84507 15.8113C3.4369 15.6525 3.14567 15.4634 2.83948 15.1578C2.53328 14.8522 2.34374 14.5614 2.18554 14.1535C2.06552 13.8459 1.92354 13.3828 1.88479 12.5309C1.84241 11.61 1.83395 11.3333 1.83395 9.00003C1.83395 6.66676 1.84311 6.39087 1.88479 5.46913C1.92361 4.61728 2.06664 4.15504 2.18554 3.84658C2.34444 3.43866 2.5337 3.1476 2.83948 2.84159C3.14525 2.53557 3.4362 2.34615 3.84507 2.18804C4.15281 2.06809 4.61623 1.9262 5.46859 1.88748C6.39012 1.84512 6.66695 1.83666 9.00057 1.83666C11.3342 1.83666 11.6113 1.84582 12.5336 1.88748C13.386 1.92627 13.8485 2.06921 14.1571 2.18804C14.5653 2.34615 14.8565 2.53599 15.1627 2.84159C15.4689 3.14718 15.6577 3.43866 15.8166 3.84658C15.9367 4.15413 16.0786 4.61728 16.1174 5.46913C16.1598 6.39087 16.1682 6.66676 16.1682 9.00003C16.1682 11.3333 16.1598 11.6092 16.1174 12.5309C16.0786 13.3828 15.9359 13.8458 15.8166 14.1535C15.6577 14.5614 15.4685 14.8525 15.1627 15.1578C14.8569 15.4631 14.5653 15.6525 14.1571 15.8113C13.8494 15.9313 13.386 16.0732 12.5336 16.1119C11.6121 16.1542 11.3352 16.1627 9.00057 16.1627C6.6659 16.1627 6.38984 16.1542 5.46859 16.1119ZM5.3962 0.315608C4.46551 0.357966 3.82955 0.505452 3.27415 0.721437C2.69897 0.944482 2.21204 1.24372 1.72547 1.72923C1.2389 2.21474 0.940252 2.70214 0.717073 3.27698C0.500959 3.83239 0.353385 4.46763 0.311001 5.39776C0.267918 6.32936 0.258057 6.6272 0.258057 8.99996C0.258057 11.3727 0.267918 11.6706 0.311001 12.6022C0.353385 13.5324 0.500959 14.1675 0.717073 14.7229C0.940252 15.2974 1.23897 15.7854 1.72547 16.2707C2.21197 16.756 2.69897 17.0548 3.27415 17.2785C3.8306 17.4945 4.46551 17.642 5.3962 17.6843C6.32886 17.7267 6.62638 17.7372 9.00057 17.7372C11.3748 17.7372 11.6728 17.7274 12.6049 17.6843C13.5357 17.642 14.1712 17.4945 14.727 17.2785C15.3018 17.0548 15.7891 16.7562 16.2757 16.2707C16.7622 15.7852 17.0603 15.2974 17.2841 14.7229C17.5002 14.1675 17.6484 13.5323 17.6901 12.6022C17.7325 11.6699 17.7424 11.3727 17.7424 8.99996C17.7424 6.6272 17.7325 6.32936 17.6901 5.39776C17.6477 4.46756 17.5002 3.83204 17.2841 3.27698C17.0603 2.70249 16.7615 2.21551 16.2757 1.72923C15.7899 1.24295 15.3018 0.944482 14.7277 0.721437C14.1712 0.505452 13.5356 0.357267 12.6056 0.315608C11.6735 0.27325 11.3755 0.262695 9.00127 0.262695C6.62708 0.262695 6.32886 0.272551 5.3962 0.315608Z" fill="url(#paint0_radial_52_32)"/>
<path d="M6.08686 8.99996C6.08686 7.39154 7.39118 6.08731 9.00057 6.08731C10.61 6.08731 11.915 7.39154 11.915 8.99996C11.915 10.6084 10.61 11.9126 9.00057 11.9126C7.39118 11.9126 6.08686 10.6084 6.08686 8.99996ZM4.51139 8.99996C4.51139 11.4779 6.52119 13.4864 9.00057 13.4864C11.4799 13.4864 13.4897 11.4779 13.4897 8.99996C13.4897 6.52207 11.4799 4.51348 9.00057 4.51348C6.52119 4.51348 4.51139 6.52207 4.51139 8.99996ZM12.6184 4.33559C12.6183 4.54296 12.6797 4.74569 12.7949 4.91816C12.9101 5.09063 13.0739 5.22508 13.2656 5.30451C13.4573 5.38394 13.6682 5.40479 13.8717 5.36442C14.0752 5.32404 14.2622 5.22426 14.409 5.07769C14.5558 4.93111 14.6558 4.74433 14.6963 4.54097C14.7369 4.3376 14.7162 4.12678 14.6369 3.93516C14.5575 3.74355 14.4231 3.57975 14.2507 3.46447C14.0782 3.34919 13.8754 3.28762 13.6679 3.28754H13.6675C13.3893 3.28767 13.1226 3.39811 12.9259 3.59462C12.7292 3.79113 12.6186 4.05763 12.6184 4.33559ZM5.46859 16.1119C4.61623 16.0731 4.15295 15.9312 3.84507 15.8113C3.4369 15.6525 3.14567 15.4634 2.83948 15.1578C2.53328 14.8522 2.34374 14.5614 2.18554 14.1535C2.06552 13.8459 1.92354 13.3828 1.88479 12.5309C1.84241 11.61 1.83395 11.3333 1.83395 9.00003C1.83395 6.66676 1.84311 6.39087 1.88479 5.46913C1.92361 4.61728 2.06664 4.15504 2.18554 3.84658C2.34444 3.43866 2.5337 3.1476 2.83948 2.84159C3.14525 2.53557 3.4362 2.34615 3.84507 2.18804C4.15281 2.06809 4.61623 1.9262 5.46859 1.88748C6.39012 1.84512 6.66695 1.83666 9.00057 1.83666C11.3342 1.83666 11.6113 1.84582 12.5336 1.88748C13.386 1.92627 13.8485 2.06921 14.1571 2.18804C14.5653 2.34615 14.8565 2.53599 15.1627 2.84159C15.4689 3.14718 15.6577 3.43866 15.8166 3.84658C15.9367 4.15413 16.0786 4.61728 16.1174 5.46913C16.1598 6.39087 16.1682 6.66676 16.1682 9.00003C16.1682 11.3333 16.1598 11.6092 16.1174 12.5309C16.0786 13.3828 15.9359 13.8458 15.8166 14.1535C15.6577 14.5614 15.4685 14.8525 15.1627 15.1578C14.8569 15.4631 14.5653 15.6525 14.1571 15.8113C13.8494 15.9313 13.386 16.0732 12.5336 16.1119C11.6121 16.1542 11.3352 16.1627 9.00057 16.1627C6.6659 16.1627 6.38984 16.1542 5.46859 16.1119ZM5.3962 0.315608C4.46551 0.357966 3.82955 0.505452 3.27415 0.721437C2.69897 0.944482 2.21204 1.24372 1.72547 1.72923C1.2389 2.21474 0.940252 2.70214 0.717073 3.27698C0.500959 3.83239 0.353385 4.46763 0.311001 5.39776C0.267918 6.32936 0.258057 6.6272 0.258057 8.99996C0.258057 11.3727 0.267918 11.6706 0.311001 12.6022C0.353385 13.5324 0.500959 14.1675 0.717073 14.7229C0.940252 15.2974 1.23897 15.7854 1.72547 16.2707C2.21197 16.756 2.69897 17.0548 3.27415 17.2785C3.8306 17.4945 4.46551 17.642 5.3962 17.6843C6.32886 17.7267 6.62638 17.7372 9.00057 17.7372C11.3748 17.7372 11.6728 17.7274 12.6049 17.6843C13.5357 17.642 14.1712 17.4945 14.727 17.2785C15.3018 17.0548 15.7891 16.7562 16.2757 16.2707C16.7622 15.7852 17.0603 15.2974 17.2841 14.7229C17.5002 14.1675 17.6484 13.5323 17.6901 12.6022C17.7325 11.6699 17.7424 11.3727 17.7424 8.99996C17.7424 6.6272 17.7325 6.32936 17.6901 5.39776C17.6477 4.46756 17.5002 3.83204 17.2841 3.27698C17.0603 2.70249 16.7615 2.21551 16.2757 1.72923C15.7899 1.24295 15.3018 0.944482 14.7277 0.721437C14.1712 0.505452 13.5356 0.357267 12.6056 0.315608C11.6735 0.27325 11.3755 0.262695 9.00127 0.262695C6.62708 0.262695 6.32886 0.272551 5.3962 0.315608Z" fill="url(#paint1_radial_52_32)"/>
<defs>
<radialGradient id="paint0_radial_52_32" cx="0" cy="0" r="1" gradientUnits="userSpaceOnUse" gradientTransform="translate(2.58105 17.8198) scale(22.8252 22.8115)">
<stop offset="0.09" stop-color="#FA8F21"/>
<stop offset="0.78" stop-color="#D82D7E"/>
</radialGradient>
<radialGradient id="paint1_radial_52_32" cx="0" cy="0" r="1" gradientUnits="userSpaceOnUse" gradientTransform="translate(10.862 18.6026) scale(17.9894 17.9786)">
<stop offset="0.64" stop-color="#8C3AAA" stop-opacity="0"/>
<stop offset="1" stop-color="#8C3AAA"/>
</radialGradient>
</defs>
</svg>
