<svg width="24" height="26" viewBox="0 0 24 26" fill="none" xmlns="http://www.w3.org/2000/svg">
<path fill-rule="evenodd" clip-rule="evenodd" d="M13.2037 0.857538C13.1284 0.756588 13.0335 0.671853 12.9247 0.608393C12.8159 0.544933 12.6954 0.504049 12.5705 0.488181C12.4455 0.472314 12.3186 0.481789 12.1974 0.516041C12.0762 0.550294 11.9631 0.60862 11.865 0.687538C9.46913 2.61106 7.88894 5.36913 7.44122 8.40879C6.61999 7.81266 5.90032 7.08793 5.30997 6.26254C5.22976 6.15042 5.1258 6.05736 5.00552 5.99001C4.88523 5.92266 4.75157 5.88266 4.61406 5.87287C4.47654 5.86309 4.33857 5.88375 4.20995 5.93338C4.08134 5.98302 3.96525 6.06041 3.86997 6.16004C2.21892 7.88682 1.16046 10.0944 0.847919 12.4629C0.535372 14.8315 0.984968 17.238 2.13158 19.334C3.27819 21.4299 5.06227 23.1064 7.22539 24.1206C9.38851 25.1349 11.8183 25.4341 14.1629 24.975C16.5075 24.516 18.645 23.3225 20.2659 21.5673C21.8868 19.8122 22.9069 17.5867 23.1784 15.2131C23.4498 12.8395 22.9586 10.4411 21.7759 8.36528C20.5932 6.2895 18.7803 4.64414 16.6 3.66754C15.2596 3.01575 14.095 2.05216 13.2037 0.857538ZM16.6875 15.8125C16.687 16.4906 16.5394 17.1604 16.255 17.7759C15.9705 18.3914 15.5559 18.9378 15.0398 19.3775C14.5236 19.8172 13.9182 20.1397 13.2654 20.3228C12.6125 20.5058 11.9277 20.545 11.2582 20.4377C10.5887 20.3304 9.95046 20.0792 9.38749 19.7013C8.82452 19.3234 8.35023 18.8279 7.99735 18.2489C7.64446 17.6699 7.42138 17.0213 7.3435 16.3477C7.26561 15.6742 7.33478 14.9918 7.54622 14.3475C8.33122 14.9288 9.23372 15.36 10.2125 15.5975C10.4781 13.8867 11.3284 12.3207 12.6187 11.1663C13.7448 11.3162 14.778 11.87 15.5264 12.7246C16.2748 13.5792 16.6874 14.6766 16.6875 15.8125Z" fill="url(#paint0_linear_25_850)"/>
<defs>
<linearGradient id="paint0_linear_25_850" x1="12.0012" y1="0.480713" x2="12.0012" y2="25.1847" gradientUnits="userSpaceOnUse">
<stop stop-color="#EF293A"/>
<stop offset="1" stop-color="#F5BB49"/>
</linearGradient>
</defs>
</svg>
