<svg width="18" height="14" viewBox="0 0 18 14" fill="none" xmlns="http://www.w3.org/2000/svg">
<path d="M17.0942 1.88505C16.5658 2.11244 16.0103 2.27079 15.4415 2.35617C15.7074 2.31057 16.0988 1.83186 16.2545 1.6381C16.4912 1.34582 16.6715 1.01217 16.7864 0.654081C16.7864 0.627486 16.813 0.589493 16.7864 0.570497C16.773 0.563181 16.758 0.559347 16.7428 0.559347C16.7275 0.559347 16.7125 0.563181 16.6991 0.570497C16.0814 0.904995 15.424 1.16029 14.7424 1.33036C14.7187 1.33761 14.6934 1.33826 14.6693 1.33224C14.6452 1.32622 14.6232 1.31374 14.6057 1.29616C14.5526 1.23299 14.4955 1.17334 14.4347 1.1176C14.1567 0.868532 13.8413 0.664684 13.5001 0.513507C13.0394 0.324522 12.5418 0.242676 12.0449 0.274152C11.5628 0.304602 11.092 0.433926 10.662 0.654081C10.2385 0.886189 9.86632 1.20151 9.56779 1.58111C9.25377 1.97181 9.02706 2.42523 8.90291 2.91086C8.80054 3.3728 8.78892 3.85023 8.86872 4.3166C8.86872 4.39639 8.86872 4.40778 8.80033 4.39639C6.09143 3.99746 3.86885 3.03624 2.05278 0.973222C1.973 0.882039 1.93121 0.882039 1.86662 0.973222C1.07636 2.1738 1.46009 4.07345 2.44791 5.01187C2.58089 5.13725 2.71766 5.25883 2.86203 5.37281C2.40913 5.34065 1.96728 5.21792 1.56267 5.01187C1.48669 4.96248 1.4449 4.98908 1.4411 5.08026C1.43033 5.20667 1.43033 5.33378 1.4411 5.46019C1.52037 6.06602 1.75913 6.63993 2.13295 7.12323C2.50677 7.60653 3.00224 7.98187 3.5687 8.21088C3.70679 8.27003 3.85068 8.31459 3.99802 8.34385C3.57874 8.4264 3.14872 8.43924 2.72526 8.38185C2.63408 8.36285 2.59988 8.41224 2.63408 8.49963C3.19257 10.0193 4.40455 10.4829 5.29358 10.7412C5.41516 10.7602 5.53674 10.7602 5.67351 10.7906C5.67351 10.7906 5.67351 10.7906 5.65071 10.8134C5.38856 11.2921 4.32856 11.615 3.84225 11.7822C2.95461 12.1011 2.00822 12.2229 1.06877 12.1393C0.920593 12.1166 0.8864 12.1204 0.848407 12.1393C0.810414 12.1583 0.848407 12.2001 0.890199 12.2381C1.08016 12.3635 1.27013 12.4737 1.46769 12.5801C2.05584 12.9009 2.67763 13.1557 3.32175 13.3399C6.65753 14.2594 10.4112 13.5831 12.915 11.0945C14.883 9.14171 15.5745 6.44801 15.5745 3.75051C15.5745 3.64793 15.6998 3.58714 15.772 3.53395C16.2699 3.146 16.7089 2.68784 17.0752 2.1738C17.1386 2.09717 17.1712 1.99961 17.1664 1.90025C17.1664 1.84326 17.1664 1.85466 17.0942 1.88505Z" fill="#33CCFF"/>
</svg>
