<svg width="20" height="20" viewBox="0 0 20 20" fill="none" xmlns="http://www.w3.org/2000/svg">
<path d="M10 15.5C10.9667 15.5 11.8583 15.2667 12.675 14.8C13.4917 14.3333 14.15 13.7 14.65 12.9C14.75 12.7 14.7417 12.5 14.625 12.3C14.5083 12.1 14.3333 12 14.1 12H5.9C5.66667 12 5.49167 12.1 5.375 12.3C5.25833 12.5 5.25 12.7 5.35 12.9C5.85 13.7 6.5125 14.3333 7.3375 14.8C8.1625 15.2667 9.05 15.5 10 15.5ZM6.9 7.95L7.425 8.475C7.575 8.625 7.75 8.7 7.95 8.7C8.15 8.7 8.325 8.625 8.475 8.475C8.625 8.325 8.69583 8.15 8.6875 7.95C8.67917 7.75 8.60833 7.575 8.475 7.425L7.6 6.525C7.4 6.325 7.1625 6.225 6.8875 6.225C6.6125 6.225 6.375 6.325 6.175 6.525L5.275 7.425C5.125 7.575 5.05 7.75 5.05 7.95C5.05 8.15 5.125 8.325 5.275 8.475C5.40833 8.60833 5.57917 8.67917 5.7875 8.6875C5.99583 8.69583 6.175 8.63333 6.325 8.5L6.9 7.95ZM13.1 7.95L13.675 8.5C13.825 8.63333 14 8.7 14.2 8.7C14.4 8.7 14.575 8.625 14.725 8.475C14.875 8.325 14.95 8.15 14.95 7.95C14.95 7.75 14.875 7.575 14.725 7.425L13.825 6.525C13.625 6.325 13.3875 6.225 13.1125 6.225C12.8375 6.225 12.6 6.325 12.4 6.525L11.5 7.425C11.3667 7.575 11.3 7.75 11.3 7.95C11.3 8.15 11.375 8.325 11.525 8.475C11.675 8.625 11.85 8.7 12.05 8.7C12.25 8.7 12.425 8.625 12.575 8.475L13.1 7.95ZM10 20C8.61667 20 7.31667 19.7375 6.1 19.2125C4.88333 18.6875 3.825 17.975 2.925 17.075C2.025 16.175 1.3125 15.1167 0.7875 13.9C0.2625 12.6833 0 11.3833 0 10C0 8.61667 0.2625 7.31667 0.7875 6.1C1.3125 4.88333 2.025 3.825 2.925 2.925C3.825 2.025 4.88333 1.3125 6.1 0.7875C7.31667 0.2625 8.61667 0 10 0C11.3833 0 12.6833 0.2625 13.9 0.7875C15.1167 1.3125 16.175 2.025 17.075 2.925C17.975 3.825 18.6875 4.88333 19.2125 6.1C19.7375 7.31667 20 8.61667 20 10C20 11.3833 19.7375 12.6833 19.2125 13.9C18.6875 15.1167 17.975 16.175 17.075 17.075C16.175 17.975 15.1167 18.6875 13.9 19.2125C12.6833 19.7375 11.3833 20 10 20Z" fill="black"/>
</svg>
