<svg width="20" height="20" viewBox="0 0 20 20" fill="none" xmlns="http://www.w3.org/2000/svg">
<path d="M10 15.5C10.8833 15.5 11.7208 15.3083 12.5125 14.925C13.3042 14.5417 13.9417 13.9833 14.425 13.25C14.6083 12.9667 14.6333 12.6875 14.5 12.4125C14.3667 12.1375 14.15 12 13.85 12C13.7167 12 13.5958 12.0292 13.4875 12.0875C13.3792 12.1458 13.2917 12.2333 13.225 12.35C12.8417 12.8667 12.3667 13.2708 11.8 13.5625C11.2333 13.8542 10.6333 14 10 14C9.36667 14 8.76667 13.8542 8.2 13.5625C7.63333 13.2708 7.15833 12.8667 6.775 12.35C6.69167 12.2333 6.59583 12.1458 6.4875 12.0875C6.37917 12.0292 6.25833 12 6.125 12C5.825 12 5.60833 12.1333 5.475 12.4C5.34167 12.6667 5.36667 12.9333 5.55 13.2C6.03333 13.95 6.67083 14.5208 7.4625 14.9125C8.25417 15.3042 9.1 15.5 10 15.5ZM13.5 9C13.9167 9 14.2708 8.85417 14.5625 8.5625C14.8542 8.27083 15 7.91667 15 7.5C15 7.08333 14.8542 6.72917 14.5625 6.4375C14.2708 6.14583 13.9167 6 13.5 6C13.0833 6 12.7292 6.14583 12.4375 6.4375C12.1458 6.72917 12 7.08333 12 7.5C12 7.91667 12.1458 8.27083 12.4375 8.5625C12.7292 8.85417 13.0833 9 13.5 9ZM6.5 9C6.91667 9 7.27083 8.85417 7.5625 8.5625C7.85417 8.27083 8 7.91667 8 7.5C8 7.08333 7.85417 6.72917 7.5625 6.4375C7.27083 6.14583 6.91667 6 6.5 6C6.08333 6 5.72917 6.14583 5.4375 6.4375C5.14583 6.72917 5 7.08333 5 7.5C5 7.91667 5.14583 8.27083 5.4375 8.5625C5.72917 8.85417 6.08333 9 6.5 9ZM10 20C8.61667 20 7.31667 19.7375 6.1 19.2125C4.88333 18.6875 3.825 17.975 2.925 17.075C2.025 16.175 1.3125 15.1167 0.7875 13.9C0.2625 12.6833 0 11.3833 0 10C0 8.61667 0.2625 7.31667 0.7875 6.1C1.3125 4.88333 2.025 3.825 2.925 2.925C3.825 2.025 4.88333 1.3125 6.1 0.7875C7.31667 0.2625 8.61667 0 10 0C11.3833 0 12.6833 0.2625 13.9 0.7875C15.1167 1.3125 16.175 2.025 17.075 2.925C17.975 3.825 18.6875 4.88333 19.2125 6.1C19.7375 7.31667 20 8.61667 20 10C20 11.3833 19.7375 12.6833 19.2125 13.9C18.6875 15.1167 17.975 16.175 17.075 17.075C16.175 17.975 15.1167 18.6875 13.9 19.2125C12.6833 19.7375 11.3833 20 10 20Z" fill="black"/>
</svg>
