<svg width="20" height="20" viewBox="0 0 20 20" fill="none" xmlns="http://www.w3.org/2000/svg">
<path d="M10 11.5C9.1 11.5 8.25417 11.6958 7.4625 12.0875C6.67083 12.4792 6.03333 13.05 5.55 13.8C5.36667 14.0667 5.34167 14.3333 5.475 14.6C5.60833 14.8667 5.825 15 6.125 15C6.25833 15 6.37917 14.9708 6.4875 14.9125C6.59583 14.8542 6.69167 14.7667 6.775 14.65C7.15833 14.1333 7.63333 13.7292 8.2 13.4375C8.76667 13.1458 9.36667 13 10 13C10.6333 13 11.2333 13.1458 11.8 13.4375C12.3667 13.7292 12.8417 14.1333 13.225 14.65C13.2917 14.7667 13.3792 14.8542 13.4875 14.9125C13.5958 14.9708 13.7167 15 13.85 15C14.15 15 14.3667 14.8625 14.5 14.5875C14.6333 14.3125 14.6083 14.0333 14.425 13.75C13.9417 13.0167 13.3042 12.4583 12.5125 12.075C11.7208 11.6917 10.8833 11.5 10 11.5ZM13.5 9C13.9167 9 14.2708 8.85417 14.5625 8.5625C14.8542 8.27083 15 7.91667 15 7.5C15 7.08333 14.8542 6.72917 14.5625 6.4375C14.2708 6.14583 13.9167 6 13.5 6C13.0833 6 12.7292 6.14583 12.4375 6.4375C12.1458 6.72917 12 7.08333 12 7.5C12 7.91667 12.1458 8.27083 12.4375 8.5625C12.7292 8.85417 13.0833 9 13.5 9ZM6.5 9C6.91667 9 7.27083 8.85417 7.5625 8.5625C7.85417 8.27083 8 7.91667 8 7.5C8 7.08333 7.85417 6.72917 7.5625 6.4375C7.27083 6.14583 6.91667 6 6.5 6C6.08333 6 5.72917 6.14583 5.4375 6.4375C5.14583 6.72917 5 7.08333 5 7.5C5 7.91667 5.14583 8.27083 5.4375 8.5625C5.72917 8.85417 6.08333 9 6.5 9ZM10 20C8.61667 20 7.31667 19.7375 6.1 19.2125C4.88333 18.6875 3.825 17.975 2.925 17.075C2.025 16.175 1.3125 15.1167 0.7875 13.9C0.2625 12.6833 0 11.3833 0 10C0 8.61667 0.2625 7.31667 0.7875 6.1C1.3125 4.88333 2.025 3.825 2.925 2.925C3.825 2.025 4.88333 1.3125 6.1 0.7875C7.31667 0.2625 8.61667 0 10 0C11.3833 0 12.6833 0.2625 13.9 0.7875C15.1167 1.3125 16.175 2.025 17.075 2.925C17.975 3.825 18.6875 4.88333 19.2125 6.1C19.7375 7.31667 20 8.61667 20 10C20 11.3833 19.7375 12.6833 19.2125 13.9C18.6875 15.1167 17.975 16.175 17.075 17.075C16.175 17.975 15.1167 18.6875 13.9 19.2125C12.6833 19.7375 11.3833 20 10 20Z" fill="black"/>
</svg>
