<svg width="26" height="26" viewBox="0 0 26 26" fill="none" xmlns="http://www.w3.org/2000/svg">
<path fill-rule="evenodd" clip-rule="evenodd" d="M0.8125 13C0.8125 6.26875 6.26875 0.8125 13 0.8125C19.7313 0.8125 25.1875 6.26875 25.1875 13C25.1875 19.7313 19.7313 25.1875 13 25.1875C6.26875 25.1875 0.8125 19.7313 0.8125 13ZM17.5125 10.7325C17.5875 10.6326 17.6418 10.5186 17.6721 10.3974C17.7025 10.2762 17.7083 10.1502 17.6892 10.0267C17.6701 9.90321 17.6266 9.78478 17.5611 9.67837C17.4956 9.57196 17.4095 9.47972 17.3078 9.40706C17.2062 9.33441 17.091 9.2828 16.9691 9.25529C16.8473 9.22777 16.7211 9.22489 16.5981 9.24683C16.4751 9.26876 16.3577 9.31507 16.2528 9.38301C16.148 9.45096 16.0578 9.53919 15.9875 9.6425L11.9425 15.305L9.9125 13.275C9.73478 13.1094 9.49972 13.0192 9.25685 13.0235C9.01397 13.0278 8.78224 13.1262 8.61047 13.298C8.43871 13.4697 8.34032 13.7015 8.33603 13.9443C8.33175 14.1872 8.4219 14.4223 8.5875 14.6L11.4 17.4125C11.4962 17.5087 11.6123 17.5827 11.74 17.6296C11.8677 17.6764 12.0041 17.6948 12.1397 17.6837C12.2753 17.6725 12.4068 17.6319 12.5252 17.5648C12.6435 17.4977 12.7458 17.4056 12.825 17.295L17.5125 10.7325Z" fill="#109A8B"/>
</svg>
