<svg width="16" height="17" viewBox="0 0 16 17" fill="none" xmlns="http://www.w3.org/2000/svg">
<path d="M14.4874 2.0127C14.1592 1.68458 13.7141 1.50024 13.25 1.50024C12.786 1.50024 12.3409 1.68458 12.0127 2.0127L11.2414 2.78404L13.716 5.2587L14.4874 4.48737C14.8155 4.15919 14.9998 3.71412 14.9998 3.25004C14.9998 2.78596 14.8155 2.34088 14.4874 2.0127ZM13.0087 5.96604L10.534 3.49137L2.43405 11.5914C2.02261 12.0026 1.72017 12.5099 1.55405 13.0674L1.02071 14.8574C0.994965 14.9437 0.993045 15.0355 1.01516 15.1229C1.03727 15.2102 1.08259 15.29 1.14632 15.3538C1.21006 15.4175 1.28984 15.4628 1.37722 15.4849C1.4646 15.507 1.55634 15.5051 1.64271 15.4794L3.43271 14.946C3.9902 14.7799 4.49749 14.4775 4.90871 14.066L13.0087 5.96604Z" fill="white"/>
</svg>
